<svg xmlns="http://www.w3.org/2000/svg" viewBox="0 0 200 200" width="200" height="200">
  <!-- Background Circle -->
  <circle cx="100" cy="100" r="95" fill="#f5d742" stroke="#e2b007" stroke-width="5"/>
  
  <!-- Decorative Ring -->
  <circle cx="100" cy="100" r="85" fill="none" stroke="#e2b007" stroke-width="2" stroke-dasharray="5,3"/>
  
  <!-- Profile Silhouette -->
  <g transform="translate(40, 40) scale(0.6)">
    <!-- Head Shape -->
    <path d="M100,30 C130,30 150,60 150,90 C150,120 130,150 100,150 C70,150 50,120 50,90 C50,60 70,30 100,30 Z" fill="#e2b007" stroke="#d4a304" stroke-width="2"/>
    
    <!-- Hair -->
    <path d="M70,60 C80,40 120,40 130,60 C140,50 150,70 140,85 C145,70 160,75 155,90 C165,95 160,110 150,105 C155,115 145,125 135,115 C140,130 120,140 110,125 C100,135 80,135 70,125 C60,140 40,130 45,115 C35,125 25,115 30,105 C20,110 15,95 25,90 C20,75 35,70 40,85 C30,70 40,50 50,60 C60,40 65,50 70,60 Z" fill="#d4a304"/>
    
    <!-- Face Features -->
    <ellipse cx="85" cy="85" rx="5" ry="7" fill="#fff"/>
    <ellipse cx="115" cy="85" rx="5" ry="7" fill="#fff"/>
    <circle cx="85" cy="85" r="2" fill="#000"/>
    <circle cx="115" cy="85" r="2" fill="#000"/>
    <path d="M90,110 C95,115 105,115 110,110" fill="none" stroke="#d4a304" stroke-width="3" stroke-linecap="round"/>
    
    <!-- Crown -->
    <path d="M70,50 L80,30 L100,40 L120,30 L130,50 Z" fill="#f5d742" stroke="#e2b007" stroke-width="2"/>
    <circle cx="80" cy="35" r="3" fill="#e74c3c"/>
    <circle cx="100" cy="45" r="3" fill="#3498db"/>
    <circle cx="120" cy="35" r="3" fill="#2ecc71"/>
  </g>
  
  <!-- Edge Details -->
  <g>
    <!-- Small Dots Around Edge -->
    <circle cx="100" cy="15" r="3" fill="#e2b007"/>
    <circle cx="135" cy="25" r="3" fill="#e2b007"/>
    <circle cx="165" cy="50" r="3" fill="#e2b007"/>
    <circle cx="185" cy="100" r="3" fill="#e2b007"/>
    <circle cx="165" cy="150" r="3" fill="#e2b007"/>
    <circle cx="135" cy="175" r="3" fill="#e2b007"/>
    <circle cx="100" cy="185" r="3" fill="#e2b007"/>
    <circle cx="65" cy="175" r="3" fill="#e2b007"/>
    <circle cx="35" cy="150" r="3" fill="#e2b007"/>
    <circle cx="15" cy="100" r="3" fill="#e2b007"/>
    <circle cx="35" cy="50" r="3" fill="#e2b007"/>
    <circle cx="65" cy="25" r="3" fill="#e2b007"/>
  </g>
  
  <!-- Text -->
  <text x="100" y="180" font-family="Arial" font-size="14" font-weight="bold" text-anchor="middle" fill="#e2b007">HEADS</text>
  <text x="100" y="30" font-family="Arial" font-size="12" font-weight="bold" text-anchor="middle" fill="#e2b007">2023</text>
  
  <!-- Shine Effect -->
  <ellipse cx="70" cy="70" rx="40" ry="25" fill="white" opacity="0.1" transform="rotate(-30 70 70)"/>
</svg>